# xmcd
#
# Track frame offsets: 
#        150
#        13429
#        29905
#        43212
#        57937
#        68382
#        81780
#        94335
#        111020
#        126546
#        141263
#
# Disc length: 2033 seconds
#
# Revision: 0
# Processed by: cddbd v1.5.2PL0 Copyright (c) Steve Scherf et al.
# Submitted via: ExactAudioCopyFreeDBPlugin 1.0
#
DISCID=a407ef0b
DTITLE=Thomas Wywrot - Every Time I Walk This Road
DYEAR=2010
DGENRE=Country
TTITLE0=95 Years
TTITLE1=Carolina In the Pines
TTITLE2=Meat Eater
TTITLE3=Lonesome Tonight
TTITLE4=Now Here Comes the Rain
TTITLE5=F.T.L.
TTITLE6=Kayla Dear
TTITLE7=Lily Green
TTITLE8=Handsome Molly
TTITLE9=Running Through My Mind
TTITLE10=Till I See You Again
EXTD=
EXTT0=
EXTT1=
EXTT2=
EXTT3=
EXTT4=
EXTT5=
EXTT6=
EXTT7=
EXTT8=
EXTT9=
EXTT10=
PLAYORDER=
